# xmcd CD database file
#
# Track frame offsets:
#	150
#	19303
#	30900
#	44291
#	56613
#	76591
#	88848
#	101044
#	114595
#	129034
#	148828
#	167014
#	180879
#	194884
#	214266
#	228966
#	242236
#	256342
#	268792
#	282910
#
# Disc length: 3956 seconds
#
# Revision: 0
# Processed by: cddbd v1.5.2PL0 Copyright (c) Steve Scherf et al.
# Submitted via: CDex 1.70beta2
#
DISCID=160f7214
DTITLE=Dizzy Gillespie - Dizzy Atmosphere cd1
DYEAR=2006
DGENRE=Jazz
TTITLE0=The Way You Look Tonight
TTITLE1=Undecided
TTITLE2=Ain't Misbehavin'
TTITLE3=Blue and Sentimental
TTITLE4=Blue Moon
TTITLE5=Cocktails for Two
TTITLE6=Cognac Blues
TTITLE7=Just Blues (One More Blues)
TTITLE8=Just One More Chance
TTITLE9=Lullaby in Rhythm
TTITLE10=Mama's Blues
TTITLE11=Moon Nocturne
TTITLE12=Sabla Y Blue
TTITLE13=Summertime
TTITLE14=They Can't Take That Away From Me
TTITLE15=When It's Sleepy Time Down South
TTITLE16=Birk's Works
TTITLE17=Nice Work if You Can Get it
TTITLE18=On The Sunny Side of The Street
TTITLE19=Stardust
EXTD=YEAR: 2006
EXTT0=
EXTT1=
EXTT2=
EXTT3=
EXTT4=
EXTT5=
EXTT6=
EXTT7=
EXTT8=
EXTT9=
EXTT10=
EXTT11=
EXTT12=
EXTT13=
EXTT14=
EXTT15=
EXTT16=
EXTT17=
EXTT18=
EXTT19=
PLAYORDER=
